<svg xml:space="preserve" viewBox="47.1525 199.762 480 100" width="480" y="0px" x="0px" xmlns:xlink="http://www.w3.org/1999/xlink" xmlns="http://www.w3.org/2000/svg" id="Layer_1" version="1.1" style="max-height: 500px" height="100">
<path d="M456.000000,501.000000 &#10;&#9;C304.000031,501.000000 152.500076,501.000000 1.000081,501.000000 &#10;&#9;C1.000054,334.333405 1.000054,167.666824 1.000027,1.000171 &#10;&#9;C167.666550,1.000114 334.333099,1.000114 500.999756,1.000057 &#10;&#9;C500.999817,167.666519 500.999817,334.333038 500.999908,500.999756 &#10;&#9;C486.166656,501.000000 471.333344,501.000000 456.000000,501.000000 &#10;M118.988342,224.456879 &#10;&#9;C111.826820,236.634415 104.544334,248.743088 97.556686,261.019592 &#10;&#9;C94.244331,266.838989 96.215096,273.067230 101.888191,276.535583 &#10;&#9;C107.429321,279.923248 114.224190,278.689789 117.620354,273.097290 &#10;&#9;C125.817131,259.599579 133.852142,245.999115 141.689285,232.289688 &#10;&#9;C145.076111,226.365158 142.856827,219.804169 136.973328,216.459335 &#10;&#9;C131.135696,213.140594 125.165413,214.643677 121.396751,220.405167 &#10;&#9;C120.669952,221.516281 120.029572,222.683945 118.988342,224.456879 &#10;M294.659576,261.443695 &#10;&#9;C294.659576,251.043610 294.659576,240.643539 294.659576,230.331177 &#10;&#9;C291.931000,230.331177 290.017395,230.331177 288.134979,230.331177 &#10;&#9;C287.962738,232.684860 287.814392,234.711761 287.635681,237.153687 &#10;&#9;C278.373810,227.598755 267.707550,226.418304 259.385162,233.595871 &#10;&#9;C250.744629,241.047806 249.370575,255.085709 256.433075,264.364166 &#10;&#9;C260.297302,269.440887 265.428833,272.001160 271.870575,272.140137 &#10;&#9;C278.492188,272.282959 283.284515,268.813477 287.741333,263.946167 &#10;&#9;C287.921570,266.683838 288.058258,268.760315 288.184692,270.680603 &#10;&#9;C290.514465,270.680603 292.413757,270.680603 294.659363,270.680603 &#10;&#9;C294.659363,267.706360 294.659363,265.064331 294.659576,261.443695 &#10;M360.061279,265.408142 &#10;&#9;C360.682068,265.397949 361.302887,265.387787 361.923676,265.377594 &#10;&#9;C361.923676,267.147247 361.923676,268.916901 361.923676,270.769745 &#10;&#9;C364.369385,270.769745 366.282532,270.769745 368.371582,270.769745 &#10;&#9;C368.371582,257.132263 368.371582,243.749329 368.371582,230.249130 &#10;&#9;C366.157562,230.249130 364.233063,230.249130 361.865448,230.249130 &#10;&#9;C361.865448,232.525589 361.865448,234.562759 361.865448,236.976486 &#10;&#9;C350.706604,227.046051 339.820221,226.495895 331.796021,235.083038 &#10;&#9;C323.729706,243.715271 324.048767,258.569031 332.475555,266.716034 &#10;&#9;C340.261139,274.243134 351.493134,273.943939 360.061279,265.408142 &#10;M383.595154,233.253906 &#10;&#9;C383.606232,227.522919 379.608429,230.987228 377.183594,229.957336 &#10;&#9;C377.183594,243.903198 377.183594,257.285065 377.183594,270.666595 &#10;&#9;C379.505402,270.666595 381.549927,270.666595 383.927917,270.666595 &#10;&#9;C383.927917,263.192108 383.870087,256.062469 383.947235,248.934311 &#10;&#9;C384.003571,243.730026 386.165833,239.579422 390.801361,237.024612 &#10;&#9;C398.988098,232.512558 407.504364,237.078308 407.945679,246.492355 &#10;&#9;C408.324249,254.568451 408.024078,262.676361 408.024078,270.674927 &#10;&#9;C410.842163,270.674927 412.897186,270.674927 414.993988,270.674927 &#10;&#9;C414.993988,262.026337 415.275238,253.706161 414.925629,245.412582 &#10;&#9;C414.446045,234.034576 407.140900,227.532455 396.319183,229.226089 &#10;&#9;C392.656281,229.799362 389.364624,232.637589 385.839752,234.306595 &#10;&#9;C385.264984,234.578720 384.359192,234.151749 383.595154,233.253906 &#10;M241.805298,239.161819 &#10;&#9;C238.955383,246.183365 236.105469,253.204910 232.873413,261.167969 &#10;&#9;C229.176590,251.926971 225.543427,243.791763 222.702286,235.388763 &#10;&#9;C220.993057,230.333557 218.228760,228.971558 213.141418,230.482895 &#10;&#9;C218.341568,243.263016 223.462158,256.059601 228.854950,268.740387 &#10;&#9;C229.340729,269.882690 231.599472,270.883728 233.007523,270.848785 &#10;&#9;C234.416748,270.813782 236.497025,269.727997 237.060425,268.528503 &#10;&#9;C239.602066,263.117493 241.722305,257.507751 243.970840,251.960068 &#10;&#9;C246.869049,244.809525 249.744736,237.649857 252.601532,230.565063 &#10;&#9;C247.036743,228.620056 244.261078,230.720993 243.112503,235.637299 &#10;&#9;C242.887939,236.598526 242.405716,237.499557 241.805298,239.161819 &#10;M171.643585,255.029678 &#10;&#9;C173.390900,259.339111 175.333588,263.582916 176.811310,267.982880 &#10;&#9;C177.680405,270.570587 179.216019,271.634888 181.566422,270.922394 &#10;&#9;C183.154068,270.441132 185.193878,269.395111 185.792831,268.050110 &#10;&#9;C189.101135,260.621094 192.033813,253.024628 195.085266,245.481522 &#10;&#9;C197.104691,240.489548 199.107376,235.490799 201.089294,230.565384 &#10;&#9;C195.517715,228.676208 193.215469,230.885773 191.557190,235.666229 &#10;&#9;C188.614655,244.148895 184.962860,252.385513 181.401550,261.237793 &#10;&#9;C177.085388,250.498245 173.004791,240.344818 168.996155,230.370422 &#10;&#9;C166.480530,230.370422 164.285324,230.370422 161.646210,230.370422 &#10;&#9;C164.983398,238.672989 168.134293,246.512070 171.643585,255.029678 &#10;M75.039207,235.381744 &#10;&#9;C79.086159,240.514618 88.054886,240.157928 92.158813,236.357407 &#10;&#9;C96.324303,232.499832 97.559227,225.753403 94.653809,220.878128 &#10;&#9;C91.165794,215.025253 83.426300,213.040115 77.694954,216.528305 &#10;&#9;C71.459320,220.323380 70.164322,227.840988 75.039207,235.381744 &#10;M309.910858,259.504242 &#10;&#9;C309.911407,257.509003 309.901672,255.513687 309.914246,253.518524 &#10;&#9;C309.992554,241.081467 313.449402,237.156067 325.604248,235.748840 &#10;&#9;C325.604248,233.883392 325.604248,232.017807 325.604248,230.231049 &#10;&#9;C318.934113,229.295837 313.856689,231.282593 309.981720,237.557800 &#10;&#9;C309.711487,234.494034 309.530334,232.440048 309.337830,230.257538 &#10;&#9;C307.153961,230.257538 305.248718,230.257538 303.170166,230.257538 &#10;&#9;C303.170166,243.878082 303.170166,257.255524 303.170166,270.695648 &#10;&#9;C305.487549,270.695648 307.534637,270.695648 309.910828,270.695648 &#10;&#9;C309.910828,267.086212 309.910828,263.786804 309.910858,259.504242 &#10;M210.889877,260.468781 &#10;&#9;C210.889877,250.386200 210.889877,240.303619 210.889877,230.250305 &#10;&#9;C208.240631,230.250305 206.302765,230.250305 204.167664,230.250305 &#10;&#9;C204.167664,243.866745 204.167664,257.247528 204.167664,270.684723 &#10;&#9;C206.472504,270.684723 208.517502,270.684723 210.889832,270.684723 &#10;&#9;C210.889832,267.390564 210.889832,264.422455 210.889877,260.468781 &#10;M209.039017,221.794373 &#10;&#9;C212.609512,218.851196 213.054779,215.528870 209.797806,214.127945 &#10;&#9;C208.268799,213.470276 205.857162,213.715164 204.368927,214.519485 &#10;&#9;C203.390244,215.048416 202.512589,218.018387 203.050537,218.648941 &#10;&#9;C204.327057,220.145233 206.472977,220.899841 209.039017,221.794373 &#10;z" stroke="none" opacity="1.000000" fill="transparent"/>
<path d="M119.168839,224.141205 &#10;&#9;C120.029572,222.683945 120.669952,221.516281 121.396751,220.405167 &#10;&#9;C125.165413,214.643677 131.135696,213.140594 136.973328,216.459335 &#10;&#9;C142.856827,219.804169 145.076111,226.365158 141.689285,232.289688 &#10;&#9;C133.852142,245.999115 125.817131,259.599579 117.620354,273.097290 &#10;&#9;C114.224190,278.689789 107.429321,279.923248 101.888191,276.535583 &#10;&#9;C96.215096,273.067230 94.244331,266.838989 97.556686,261.019592 &#10;&#9;C104.544334,248.743088 111.826820,236.634415 119.168839,224.141205 &#10;z" stroke="none" opacity="1.000000" fill="#0EC1DF"/>
<path d="M294.659485,261.932983 &#10;&#9;C294.659363,265.064331 294.659363,267.706360 294.659363,270.680603 &#10;&#9;C292.413757,270.680603 290.514465,270.680603 288.184692,270.680603 &#10;&#9;C288.058258,268.760315 287.921570,266.683838 287.741333,263.946167 &#10;&#9;C283.284515,268.813477 278.492188,272.282959 271.870575,272.140137 &#10;&#9;C265.428833,272.001160 260.297302,269.440887 256.433075,264.364166 &#10;&#9;C249.370575,255.085709 250.744629,241.047806 259.385162,233.595871 &#10;&#9;C267.707550,226.418304 278.373810,227.598755 287.635681,237.153687 &#10;&#9;C287.814392,234.711761 287.962738,232.684860 288.134979,230.331177 &#10;&#9;C290.017395,230.331177 291.931000,230.331177 294.659576,230.331177 &#10;&#9;C294.659576,240.643539 294.659576,251.043610 294.659485,261.932983 &#10;M276.506775,265.158722 &#10;&#9;C285.231842,262.214569 289.341553,254.629211 286.913147,245.951492 &#10;&#9;C284.838348,238.537415 277.433228,234.235443 269.730164,235.969101 &#10;&#9;C262.417908,237.614822 257.817841,245.119186 259.068512,253.362152 &#10;&#9;C260.299866,261.477814 266.984467,266.265717 276.506775,265.158722 &#10;z" stroke="none" opacity="1.000000" fill="#FFFFFF"/>
<path d="M359.836761,265.700684 &#10;&#9;C351.493134,273.943939 340.261139,274.243134 332.475555,266.716034 &#10;&#9;C324.048767,258.569031 323.729706,243.715271 331.796021,235.083038 &#10;&#9;C339.820221,226.495895 350.706604,227.046051 361.865448,236.976486 &#10;&#9;C361.865448,234.562759 361.865448,232.525589 361.865448,230.249130 &#10;&#9;C364.233063,230.249130 366.157562,230.249130 368.371582,230.249130 &#10;&#9;C368.371582,243.749329 368.371582,257.132263 368.371582,270.769745 &#10;&#9;C366.282532,270.769745 364.369385,270.769745 361.923676,270.769745 &#10;&#9;C361.923676,268.916901 361.923676,267.147247 361.923676,265.377594 &#10;&#9;C361.302887,265.387787 360.682068,265.397949 359.836761,265.700684 &#10;M360.813416,255.630707 &#10;&#9;C361.055176,254.152954 361.437195,252.682571 361.515503,251.196213 &#10;&#9;C361.963257,242.698410 355.695374,235.731766 347.518280,235.555649 &#10;&#9;C339.394501,235.380707 333.127838,241.603973 332.934570,250.038361 &#10;&#9;C332.762543,257.544006 336.848389,263.361572 343.495941,265.075958 &#10;&#9;C350.741241,266.944519 356.525970,263.994049 360.813416,255.630707 &#10;z" stroke="none" opacity="1.000000" fill="#FFFFFF"/>
<path d="M383.600769,233.650909 &#10;&#9;C384.359192,234.151749 385.264984,234.578720 385.839752,234.306595 &#10;&#9;C389.364624,232.637589 392.656281,229.799362 396.319183,229.226089 &#10;&#9;C407.140900,227.532455 414.446045,234.034576 414.925629,245.412582 &#10;&#9;C415.275238,253.706161 414.993988,262.026337 414.993988,270.674927 &#10;&#9;C412.897186,270.674927 410.842163,270.674927 408.024078,270.674927 &#10;&#9;C408.024078,262.676361 408.324249,254.568451 407.945679,246.492355 &#10;&#9;C407.504364,237.078308 398.988098,232.512558 390.801361,237.024612 &#10;&#9;C386.165833,239.579422 384.003571,243.730026 383.947235,248.934311 &#10;&#9;C383.870087,256.062469 383.927917,263.192108 383.927917,270.666595 &#10;&#9;C381.549927,270.666595 379.505402,270.666595 377.183594,270.666595 &#10;&#9;C377.183594,257.285065 377.183594,243.903198 377.183594,229.957336 &#10;&#9;C379.608429,230.987228 383.606232,227.522919 383.600769,233.650909 &#10;z" stroke="none" opacity="1.000000" fill="#FFFFFF"/>
<path d="M241.923828,238.795074 &#10;&#9;C242.405716,237.499557 242.887939,236.598526 243.112503,235.637299 &#10;&#9;C244.261078,230.720993 247.036743,228.620056 252.601532,230.565063 &#10;&#9;C249.744736,237.649857 246.869049,244.809525 243.970840,251.960068 &#10;&#9;C241.722305,257.507751 239.602066,263.117493 237.060425,268.528503 &#10;&#9;C236.497025,269.727997 234.416748,270.813782 233.007523,270.848785 &#10;&#9;C231.599472,270.883728 229.340729,269.882690 228.854950,268.740387 &#10;&#9;C223.462158,256.059601 218.341568,243.263016 213.141418,230.482895 &#10;&#9;C218.228760,228.971558 220.993057,230.333557 222.702286,235.388763 &#10;&#9;C225.543427,243.791763 229.176590,251.926971 232.873413,261.167969 &#10;&#9;C236.105469,253.204910 238.955383,246.183365 241.923828,238.795074 &#10;z" stroke="none" opacity="1.000000" fill="#FFFFFF"/>
<path d="M171.464386,254.690414 &#10;&#9;C168.134293,246.512070 164.983398,238.672989 161.646210,230.370422 &#10;&#9;C164.285324,230.370422 166.480530,230.370422 168.996155,230.370422 &#10;&#9;C173.004791,240.344818 177.085388,250.498245 181.401550,261.237793 &#10;&#9;C184.962860,252.385513 188.614655,244.148895 191.557190,235.666229 &#10;&#9;C193.215469,230.885773 195.517715,228.676208 201.089294,230.565384 &#10;&#9;C199.107376,235.490799 197.104691,240.489548 195.085266,245.481522 &#10;&#9;C192.033813,253.024628 189.101135,260.621094 185.792831,268.050110 &#10;&#9;C185.193878,269.395111 183.154068,270.441132 181.566422,270.922394 &#10;&#9;C179.216019,271.634888 177.680405,270.570587 176.811310,267.982880 &#10;&#9;C175.333588,263.582916 173.390900,259.339111 171.464386,254.690414 &#10;z" stroke="none" opacity="1.000000" fill="#FFFFFF"/>
<path d="M74.792801,235.093887 &#10;&#9;C70.164322,227.840988 71.459320,220.323380 77.694954,216.528305 &#10;&#9;C83.426300,213.040115 91.165794,215.025253 94.653809,220.878128 &#10;&#9;C97.559227,225.753403 96.324303,232.499832 92.158813,236.357407 &#10;&#9;C88.054886,240.157928 79.086159,240.514618 74.792801,235.093887 &#10;z" stroke="none" opacity="1.000000" fill="#10C1E0"/>
<path d="M309.910828,259.995789 &#10;&#9;C309.910828,263.786804 309.910828,267.086212 309.910828,270.695648 &#10;&#9;C307.534637,270.695648 305.487549,270.695648 303.170166,270.695648 &#10;&#9;C303.170166,257.255524 303.170166,243.878082 303.170166,230.257538 &#10;&#9;C305.248718,230.257538 307.153961,230.257538 309.337830,230.257538 &#10;&#9;C309.530334,232.440048 309.711487,234.494034 309.981720,237.557800 &#10;&#9;C313.856689,231.282593 318.934113,229.295837 325.604248,230.231049 &#10;&#9;C325.604248,232.017807 325.604248,233.883392 325.604248,235.748840 &#10;&#9;C313.449402,237.156067 309.992554,241.081467 309.914246,253.518524 &#10;&#9;C309.901672,255.513687 309.911407,257.509003 309.910828,259.995789 &#10;z" stroke="none" opacity="1.000000" fill="#FFFFFF"/>
<path d="M210.889862,260.961548 &#10;&#9;C210.889832,264.422455 210.889832,267.390564 210.889832,270.684723 &#10;&#9;C208.517502,270.684723 206.472504,270.684723 204.167664,270.684723 &#10;&#9;C204.167664,257.247528 204.167664,243.866745 204.167664,230.250305 &#10;&#9;C206.302765,230.250305 208.240631,230.250305 210.889877,230.250305 &#10;&#9;C210.889877,240.303619 210.889877,250.386200 210.889862,260.961548 &#10;z" stroke="none" opacity="1.000000" fill="#FFFFFF"/>
<path d="M208.653275,221.874298 &#10;&#9;C206.472977,220.899841 204.327057,220.145233 203.050537,218.648941 &#10;&#9;C202.512589,218.018387 203.390244,215.048416 204.368927,214.519485 &#10;&#9;C205.857162,213.715164 208.268799,213.470276 209.797806,214.127945 &#10;&#9;C213.054779,215.528870 212.609512,218.851196 208.653275,221.874298 &#10;z" stroke="none" opacity="1.000000" fill="#FFFFFF"/>
<path d="M276.125854,265.232758 &#10;&#9;C266.984467,266.265717 260.299866,261.477814 259.068512,253.362152 &#10;&#9;C257.817841,245.119186 262.417908,237.614822 269.730164,235.969101 &#10;&#9;C277.433228,234.235443 284.838348,238.537415 286.913147,245.951492 &#10;&#9;C289.341553,254.629211 285.231842,262.214569 276.125854,265.232758 &#10;z" stroke="none" opacity="1.000000" fill="transparent"/>
<path d="M360.660187,256.015198 &#10;&#9;C356.525970,263.994049 350.741241,266.944519 343.495941,265.075958 &#10;&#9;C336.848389,263.361572 332.762543,257.544006 332.934570,250.038361 &#10;&#9;C333.127838,241.603973 339.394501,235.380707 347.518280,235.555649 &#10;&#9;C355.695374,235.731766 361.963257,242.698410 361.515503,251.196213 &#10;&#9;C361.437195,252.682571 361.055176,254.152954 360.660187,256.015198 &#10;z" stroke="none" opacity="1.000000" fill="transparent"/>
</svg>